<mxfile host="app.diagrams.net" agent="Mozilla/5.0 (X11; Linux x86_64) AppleWebKit/537.36 (KHTML, like Gecko) Chrome/130.0.0.0 Safari/537.36" version="24.8.4">
  <diagram name="Page-1" id="_pU-WNQT1wnBNlO78gKb">
    <mxGraphModel dx="1133" dy="1057" grid="1" gridSize="10" guides="1" tooltips="1" connect="1" arrows="1" fold="1" page="1" pageScale="1" pageWidth="850" pageHeight="1100" math="0" shadow="0">
      <root>
        <mxCell id="0" />
        <mxCell id="1" parent="0" />
        <mxCell id="n1prHvsE-R-aELV-WZbh-1" value="" style="rounded=0;whiteSpace=wrap;html=1;fillColor=#FFD966;" vertex="1" parent="1">
          <mxGeometry x="180" y="100" width="120" height="60" as="geometry" />
        </mxCell>
        <mxCell id="n1prHvsE-R-aELV-WZbh-2" value="" style="rounded=0;whiteSpace=wrap;html=1;fillColor=#FFD966;" vertex="1" parent="1">
          <mxGeometry x="400" y="340" width="120" height="60" as="geometry" />
        </mxCell>
        <mxCell id="n1prHvsE-R-aELV-WZbh-3" value="" style="rounded=0;whiteSpace=wrap;html=1;fillColor=#FFD966;" vertex="1" parent="1">
          <mxGeometry x="210" y="530" width="120" height="60" as="geometry" />
        </mxCell>
        <mxCell id="n1prHvsE-R-aELV-WZbh-4" value="" style="rounded=0;whiteSpace=wrap;html=1;fillColor=#FFD966;" vertex="1" parent="1">
          <mxGeometry x="200" y="270" width="120" height="60" as="geometry" />
        </mxCell>
        <mxCell id="n1prHvsE-R-aELV-WZbh-5" value="" style="rounded=0;whiteSpace=wrap;html=1;fillColor=#FFD966;" vertex="1" parent="1">
          <mxGeometry x="710" y="480" width="120" height="60" as="geometry" />
        </mxCell>
        <mxCell id="n1prHvsE-R-aELV-WZbh-6" value="" style="rounded=0;whiteSpace=wrap;html=1;fillColor=#FFD966;" vertex="1" parent="1">
          <mxGeometry x="900" y="190" width="120" height="60" as="geometry" />
        </mxCell>
        <mxCell id="n1prHvsE-R-aELV-WZbh-7" value="" style="ellipse;whiteSpace=wrap;html=1;" vertex="1" parent="1">
          <mxGeometry x="50" y="460" width="120" height="50" as="geometry" />
        </mxCell>
        <mxCell id="n1prHvsE-R-aELV-WZbh-8" value="" style="ellipse;whiteSpace=wrap;html=1;" vertex="1" parent="1">
          <mxGeometry x="50" y="570" width="110" height="50" as="geometry" />
        </mxCell>
        <mxCell id="n1prHvsE-R-aELV-WZbh-9" value="" style="ellipse;whiteSpace=wrap;html=1;" vertex="1" parent="1">
          <mxGeometry x="365" y="620" width="120" height="50" as="geometry" />
        </mxCell>
        <mxCell id="n1prHvsE-R-aELV-WZbh-10" value="" style="ellipse;whiteSpace=wrap;html=1;" vertex="1" parent="1">
          <mxGeometry x="230" y="670" width="120" height="60" as="geometry" />
        </mxCell>
        <mxCell id="n1prHvsE-R-aELV-WZbh-11" value="" style="ellipse;whiteSpace=wrap;html=1;" vertex="1" parent="1">
          <mxGeometry x="80" y="650" width="120" height="50" as="geometry" />
        </mxCell>
        <mxCell id="n1prHvsE-R-aELV-WZbh-13" value="PerformanceScore" style="text;html=1;align=center;verticalAlign=middle;whiteSpace=wrap;rounded=0;" vertex="1" parent="1">
          <mxGeometry x="395" y="630" width="60" height="30" as="geometry" />
        </mxCell>
        <mxCell id="n1prHvsE-R-aELV-WZbh-14" value="Comments" style="text;html=1;align=center;verticalAlign=middle;whiteSpace=wrap;rounded=0;" vertex="1" parent="1">
          <mxGeometry x="260" y="685" width="60" height="30" as="geometry" />
        </mxCell>
        <mxCell id="n1prHvsE-R-aELV-WZbh-15" value="Date" style="text;html=1;align=center;verticalAlign=middle;whiteSpace=wrap;rounded=0;" vertex="1" parent="1">
          <mxGeometry x="110" y="660" width="60" height="30" as="geometry" />
        </mxCell>
        <mxCell id="n1prHvsE-R-aELV-WZbh-16" value="CandaditeID" style="text;html=1;align=center;verticalAlign=middle;whiteSpace=wrap;rounded=0;" vertex="1" parent="1">
          <mxGeometry x="75" y="580" width="60" height="30" as="geometry" />
        </mxCell>
        <mxCell id="n1prHvsE-R-aELV-WZbh-17" value="PerformanceID" style="text;html=1;align=center;verticalAlign=middle;whiteSpace=wrap;rounded=0;" vertex="1" parent="1">
          <mxGeometry x="80" y="470" width="60" height="30" as="geometry" />
        </mxCell>
        <mxCell id="n1prHvsE-R-aELV-WZbh-18" value="" style="ellipse;whiteSpace=wrap;html=1;" vertex="1" parent="1">
          <mxGeometry x="790" y="640" width="120" height="60" as="geometry" />
        </mxCell>
        <mxCell id="n1prHvsE-R-aELV-WZbh-22" value="" style="ellipse;whiteSpace=wrap;html=1;" vertex="1" parent="1">
          <mxGeometry x="860" y="410" width="120" height="50" as="geometry" />
        </mxCell>
        <mxCell id="n1prHvsE-R-aELV-WZbh-23" value="" style="ellipse;whiteSpace=wrap;html=1;" vertex="1" parent="1">
          <mxGeometry x="890" y="530" width="120" height="60" as="geometry" />
        </mxCell>
        <mxCell id="n1prHvsE-R-aELV-WZbh-24" value="" style="ellipse;whiteSpace=wrap;html=1;" vertex="1" parent="1">
          <mxGeometry x="620" y="610" width="120" height="60" as="geometry" />
        </mxCell>
        <mxCell id="n1prHvsE-R-aELV-WZbh-25" value="Status" style="text;html=1;align=center;verticalAlign=middle;whiteSpace=wrap;rounded=0;" vertex="1" parent="1">
          <mxGeometry x="650" y="625" width="60" height="30" as="geometry" />
        </mxCell>
        <mxCell id="n1prHvsE-R-aELV-WZbh-26" value="CandidateID" style="text;html=1;align=center;verticalAlign=middle;whiteSpace=wrap;rounded=0;" vertex="1" parent="1">
          <mxGeometry x="820" y="655" width="60" height="30" as="geometry" />
        </mxCell>
        <mxCell id="n1prHvsE-R-aELV-WZbh-27" value="ClientID" style="text;html=1;align=center;verticalAlign=middle;whiteSpace=wrap;rounded=0;" vertex="1" parent="1">
          <mxGeometry x="910" y="545" width="60" height="30" as="geometry" />
        </mxCell>
        <mxCell id="n1prHvsE-R-aELV-WZbh-28" value="ApplicationID" style="text;html=1;align=center;verticalAlign=middle;whiteSpace=wrap;rounded=0;" vertex="1" parent="1">
          <mxGeometry x="890" y="420" width="60" height="30" as="geometry" />
        </mxCell>
        <mxCell id="n1prHvsE-R-aELV-WZbh-29" value="" style="rounded=0;whiteSpace=wrap;html=1;fillColor=#FFD966;" vertex="1" parent="1">
          <mxGeometry x="600" y="40" width="120" height="60" as="geometry" />
        </mxCell>
        <mxCell id="n1prHvsE-R-aELV-WZbh-30" value="Performance" style="text;html=1;align=center;verticalAlign=middle;whiteSpace=wrap;rounded=0;" vertex="1" parent="1">
          <mxGeometry x="240" y="545" width="60" height="30" as="geometry" />
        </mxCell>
        <mxCell id="n1prHvsE-R-aELV-WZbh-31" value="Application" style="text;html=1;align=center;verticalAlign=middle;whiteSpace=wrap;rounded=0;" vertex="1" parent="1">
          <mxGeometry x="740" y="495" width="60" height="30" as="geometry" />
        </mxCell>
        <mxCell id="n1prHvsE-R-aELV-WZbh-32" value="" style="ellipse;whiteSpace=wrap;html=1;" vertex="1" parent="1">
          <mxGeometry x="860" y="100" width="120" height="50" as="geometry" />
        </mxCell>
        <mxCell id="n1prHvsE-R-aELV-WZbh-33" value="" style="ellipse;whiteSpace=wrap;html=1;" vertex="1" parent="1">
          <mxGeometry x="750" y="260" width="120" height="50" as="geometry" />
        </mxCell>
        <mxCell id="n1prHvsE-R-aELV-WZbh-34" value="" style="ellipse;whiteSpace=wrap;html=1;" vertex="1" parent="1">
          <mxGeometry x="900" y="290" width="120" height="50" as="geometry" />
        </mxCell>
        <mxCell id="n1prHvsE-R-aELV-WZbh-35" value="" style="ellipse;whiteSpace=wrap;html=1;" vertex="1" parent="1">
          <mxGeometry x="1010" y="105" width="120" height="50" as="geometry" />
        </mxCell>
        <mxCell id="n1prHvsE-R-aELV-WZbh-36" value="" style="ellipse;whiteSpace=wrap;html=1;" vertex="1" parent="1">
          <mxGeometry x="1060" y="180" width="120" height="50" as="geometry" />
        </mxCell>
        <mxCell id="n1prHvsE-R-aELV-WZbh-37" value="" style="ellipse;whiteSpace=wrap;html=1;" vertex="1" parent="1">
          <mxGeometry x="1040" y="260" width="120" height="50" as="geometry" />
        </mxCell>
        <mxCell id="n1prHvsE-R-aELV-WZbh-38" value="IncoiceDate" style="text;html=1;align=center;verticalAlign=middle;whiteSpace=wrap;rounded=0;" vertex="1" parent="1">
          <mxGeometry x="1090" y="190" width="60" height="30" as="geometry" />
        </mxCell>
        <mxCell id="n1prHvsE-R-aELV-WZbh-39" value="ClientID" style="text;html=1;align=center;verticalAlign=middle;whiteSpace=wrap;rounded=0;" vertex="1" parent="1">
          <mxGeometry x="1040" y="115" width="60" height="30" as="geometry" />
        </mxCell>
        <mxCell id="n1prHvsE-R-aELV-WZbh-40" value="IncoiceID" style="text;html=1;align=center;verticalAlign=middle;whiteSpace=wrap;rounded=0;" vertex="1" parent="1">
          <mxGeometry x="890" y="110" width="60" height="30" as="geometry" />
        </mxCell>
        <mxCell id="n1prHvsE-R-aELV-WZbh-41" value="ServiceProvided" style="text;html=1;align=center;verticalAlign=middle;whiteSpace=wrap;rounded=0;" vertex="1" parent="1">
          <mxGeometry x="1070" y="270" width="60" height="30" as="geometry" />
        </mxCell>
        <mxCell id="n1prHvsE-R-aELV-WZbh-42" value="TotalCost" style="text;html=1;align=center;verticalAlign=middle;whiteSpace=wrap;rounded=0;" vertex="1" parent="1">
          <mxGeometry x="930" y="300" width="60" height="30" as="geometry" />
        </mxCell>
        <mxCell id="n1prHvsE-R-aELV-WZbh-43" value="PaymentStatus" style="text;html=1;align=center;verticalAlign=middle;whiteSpace=wrap;rounded=0;" vertex="1" parent="1">
          <mxGeometry x="780" y="270" width="60" height="30" as="geometry" />
        </mxCell>
        <mxCell id="n1prHvsE-R-aELV-WZbh-44" value="Invoice" style="text;html=1;align=center;verticalAlign=middle;whiteSpace=wrap;rounded=0;" vertex="1" parent="1">
          <mxGeometry x="930" y="205" width="60" height="30" as="geometry" />
        </mxCell>
        <mxCell id="n1prHvsE-R-aELV-WZbh-45" value="" style="endArrow=none;html=1;rounded=0;entryX=0;entryY=0.5;entryDx=0;entryDy=0;exitX=1;exitY=0.25;exitDx=0;exitDy=0;" edge="1" parent="1" source="n1prHvsE-R-aELV-WZbh-6" target="n1prHvsE-R-aELV-WZbh-36">
          <mxGeometry width="50" height="50" relative="1" as="geometry">
            <mxPoint x="670" y="420" as="sourcePoint" />
            <mxPoint x="720" y="370" as="targetPoint" />
          </mxGeometry>
        </mxCell>
        <mxCell id="n1prHvsE-R-aELV-WZbh-46" value="" style="endArrow=none;html=1;rounded=0;exitX=0;exitY=0.5;exitDx=0;exitDy=0;entryX=1;entryY=1;entryDx=0;entryDy=0;" edge="1" parent="1" source="n1prHvsE-R-aELV-WZbh-37" target="n1prHvsE-R-aELV-WZbh-6">
          <mxGeometry width="50" height="50" relative="1" as="geometry">
            <mxPoint x="670" y="420" as="sourcePoint" />
            <mxPoint x="720" y="370" as="targetPoint" />
          </mxGeometry>
        </mxCell>
        <mxCell id="n1prHvsE-R-aELV-WZbh-47" value="" style="endArrow=none;html=1;rounded=0;entryX=0.5;entryY=1;entryDx=0;entryDy=0;exitX=0.5;exitY=0;exitDx=0;exitDy=0;" edge="1" parent="1" source="n1prHvsE-R-aELV-WZbh-34" target="n1prHvsE-R-aELV-WZbh-6">
          <mxGeometry width="50" height="50" relative="1" as="geometry">
            <mxPoint x="670" y="420" as="sourcePoint" />
            <mxPoint x="720" y="370" as="targetPoint" />
          </mxGeometry>
        </mxCell>
        <mxCell id="n1prHvsE-R-aELV-WZbh-48" value="" style="endArrow=none;html=1;rounded=0;entryX=0;entryY=1;entryDx=0;entryDy=0;" edge="1" parent="1" source="n1prHvsE-R-aELV-WZbh-33" target="n1prHvsE-R-aELV-WZbh-6">
          <mxGeometry width="50" height="50" relative="1" as="geometry">
            <mxPoint x="770" y="400" as="sourcePoint" />
            <mxPoint x="820" y="350" as="targetPoint" />
          </mxGeometry>
        </mxCell>
        <mxCell id="n1prHvsE-R-aELV-WZbh-49" value="" style="endArrow=none;html=1;rounded=0;exitX=0.25;exitY=0;exitDx=0;exitDy=0;entryX=0.38;entryY=1.031;entryDx=0;entryDy=0;entryPerimeter=0;" edge="1" parent="1" source="n1prHvsE-R-aELV-WZbh-6" target="n1prHvsE-R-aELV-WZbh-32">
          <mxGeometry width="50" height="50" relative="1" as="geometry">
            <mxPoint x="860" y="200" as="sourcePoint" />
            <mxPoint x="910" y="150" as="targetPoint" />
          </mxGeometry>
        </mxCell>
        <mxCell id="n1prHvsE-R-aELV-WZbh-50" value="" style="endArrow=none;html=1;rounded=0;entryX=0;entryY=1;entryDx=0;entryDy=0;exitX=0.868;exitY=0.002;exitDx=0;exitDy=0;exitPerimeter=0;" edge="1" parent="1" source="n1prHvsE-R-aELV-WZbh-6" target="n1prHvsE-R-aELV-WZbh-35">
          <mxGeometry width="50" height="50" relative="1" as="geometry">
            <mxPoint x="670" y="420" as="sourcePoint" />
            <mxPoint x="720" y="370" as="targetPoint" />
          </mxGeometry>
        </mxCell>
        <mxCell id="n1prHvsE-R-aELV-WZbh-51" value="" style="endArrow=none;html=1;rounded=0;exitX=-0.001;exitY=0.288;exitDx=0;exitDy=0;exitPerimeter=0;entryX=1;entryY=0.75;entryDx=0;entryDy=0;" edge="1" parent="1" source="n1prHvsE-R-aELV-WZbh-23" target="n1prHvsE-R-aELV-WZbh-5">
          <mxGeometry width="50" height="50" relative="1" as="geometry">
            <mxPoint x="670" y="420" as="sourcePoint" />
            <mxPoint x="720" y="370" as="targetPoint" />
          </mxGeometry>
        </mxCell>
        <mxCell id="n1prHvsE-R-aELV-WZbh-52" value="" style="endArrow=none;html=1;rounded=0;entryX=0.654;entryY=0.931;entryDx=0;entryDy=0;entryPerimeter=0;" edge="1" parent="1" source="n1prHvsE-R-aELV-WZbh-18" target="n1prHvsE-R-aELV-WZbh-5">
          <mxGeometry width="50" height="50" relative="1" as="geometry">
            <mxPoint x="670" y="420" as="sourcePoint" />
            <mxPoint x="720" y="370" as="targetPoint" />
          </mxGeometry>
        </mxCell>
        <mxCell id="n1prHvsE-R-aELV-WZbh-53" value="" style="endArrow=none;html=1;rounded=0;exitX=0.677;exitY=-0.021;exitDx=0;exitDy=0;exitPerimeter=0;entryX=0;entryY=1;entryDx=0;entryDy=0;" edge="1" parent="1" source="n1prHvsE-R-aELV-WZbh-24" target="n1prHvsE-R-aELV-WZbh-5">
          <mxGeometry width="50" height="50" relative="1" as="geometry">
            <mxPoint x="670" y="420" as="sourcePoint" />
            <mxPoint x="720" y="370" as="targetPoint" />
          </mxGeometry>
        </mxCell>
        <mxCell id="n1prHvsE-R-aELV-WZbh-54" value="" style="endArrow=none;html=1;rounded=0;entryX=0;entryY=0.5;entryDx=0;entryDy=0;exitX=1;exitY=0;exitDx=0;exitDy=0;" edge="1" parent="1" source="n1prHvsE-R-aELV-WZbh-5" target="n1prHvsE-R-aELV-WZbh-22">
          <mxGeometry width="50" height="50" relative="1" as="geometry">
            <mxPoint x="770" y="460" as="sourcePoint" />
            <mxPoint x="820" y="410" as="targetPoint" />
          </mxGeometry>
        </mxCell>
        <mxCell id="n1prHvsE-R-aELV-WZbh-55" value="" style="endArrow=none;html=1;rounded=0;exitX=1;exitY=1;exitDx=0;exitDy=0;entryX=0;entryY=0;entryDx=0;entryDy=0;" edge="1" parent="1" source="n1prHvsE-R-aELV-WZbh-3" target="n1prHvsE-R-aELV-WZbh-9">
          <mxGeometry width="50" height="50" relative="1" as="geometry">
            <mxPoint x="250" y="420" as="sourcePoint" />
            <mxPoint x="300" y="370" as="targetPoint" />
          </mxGeometry>
        </mxCell>
        <mxCell id="n1prHvsE-R-aELV-WZbh-56" value="" style="endArrow=none;html=1;rounded=0;exitX=0.5;exitY=0;exitDx=0;exitDy=0;entryX=0.665;entryY=1.026;entryDx=0;entryDy=0;entryPerimeter=0;" edge="1" parent="1" source="n1prHvsE-R-aELV-WZbh-10" target="n1prHvsE-R-aELV-WZbh-3">
          <mxGeometry width="50" height="50" relative="1" as="geometry">
            <mxPoint x="250" y="420" as="sourcePoint" />
            <mxPoint x="300" y="370" as="targetPoint" />
          </mxGeometry>
        </mxCell>
        <mxCell id="n1prHvsE-R-aELV-WZbh-57" value="" style="endArrow=none;html=1;rounded=0;exitX=1;exitY=0;exitDx=0;exitDy=0;entryX=0.118;entryY=0.979;entryDx=0;entryDy=0;entryPerimeter=0;" edge="1" parent="1" source="n1prHvsE-R-aELV-WZbh-11" target="n1prHvsE-R-aELV-WZbh-3">
          <mxGeometry width="50" height="50" relative="1" as="geometry">
            <mxPoint x="250" y="420" as="sourcePoint" />
            <mxPoint x="300" y="370" as="targetPoint" />
          </mxGeometry>
        </mxCell>
        <mxCell id="n1prHvsE-R-aELV-WZbh-58" value="" style="endArrow=none;html=1;rounded=0;exitX=1;exitY=0.5;exitDx=0;exitDy=0;entryX=0;entryY=0.75;entryDx=0;entryDy=0;" edge="1" parent="1" source="n1prHvsE-R-aELV-WZbh-8" target="n1prHvsE-R-aELV-WZbh-3">
          <mxGeometry width="50" height="50" relative="1" as="geometry">
            <mxPoint x="250" y="420" as="sourcePoint" />
            <mxPoint x="300" y="370" as="targetPoint" />
          </mxGeometry>
        </mxCell>
        <mxCell id="n1prHvsE-R-aELV-WZbh-59" value="" style="endArrow=none;html=1;rounded=0;exitX=1;exitY=1;exitDx=0;exitDy=0;entryX=0;entryY=0;entryDx=0;entryDy=0;" edge="1" parent="1" source="n1prHvsE-R-aELV-WZbh-7" target="n1prHvsE-R-aELV-WZbh-3">
          <mxGeometry width="50" height="50" relative="1" as="geometry">
            <mxPoint x="250" y="420" as="sourcePoint" />
            <mxPoint x="300" y="370" as="targetPoint" />
          </mxGeometry>
        </mxCell>
      </root>
    </mxGraphModel>
  </diagram>
</mxfile>
